<?xml version="1.0" encoding="UTF-8"?>
<svg id="Layer_2" data-name="Layer 2" xmlns="http://www.w3.org/2000/svg" viewBox="0 0 341.97 65.35">
  <defs>
    <style>
      .cls-1 {
        fill: #231f20;
        stroke-width: 0px;
      }
    </style>
  </defs>
  <g id="logos">
    <g>
      <path class="cls-1" d="m4.2,15.06c.6-1.07-.27-2.67,1.4-2.67.4,0,.73.2,1.13.4.87.47.6,1.47,1.13,2.33.87,1.4,1.53,2.07,2.73,3.13.73.67,1,1.53,2,1.53,1.13,0,1.6-.6,2.4-1.13.93-.6,2.13-1.4,2.13-2.66,0-.53-.27-1-.27-1.47,0-.53.4-.93.93-.93.27,0,.47.13.67.13,1.47,0,1.53-2.33,2.66-2.33s1.27,1.13,1.73,2c.67,1.2.2,2.2,1,3.26.6.8,1.6.67,2,1.6.13.2.13.53.13.87,0,1.67,1.33.6,2,1.67.13.2.2.4.2.6,0,.8-1,1.53-1.33,2.53-.4,1.13-.73,1.8-.87,3,0,1.67.6,2.6.6,3.93-.07,1.93-.87,2.8-1,4.53-.07,1.13-.53,7.4-.53,8.06,0,2.46,2,3.73,2,6.13,0,1.6-1.27,2.46-2.66,2.46-9.93,0-11.79.47-13.39,1.07-1.8.73-2.8,1.2-4.26,2.4-1.07.87-2.53,1.13-2.53,2.53s.87,2.8,2.07,2.8c1.13,0,1.87-1.6,3.06-2.46,1.6-1.13,2-3.06,4.06-3.06.67,0,1.13.07,1.4.07.33,0,.53,0,.67-.13,1.4-1.53,1.8-1.67,2.2-1.67,1.27,0,2.46,1.13,2.46,2.4,0,1.4-.73,3.46-2.67,3.46-1.4,0-2.4-1.87-2.27-1.87-1,0-1.53,1.27-2.2,2.2-2.73,3.93-4.13,5.13-7.79,5.13-2.33,0-4.06-2-4.86-3.6-.33-.93-.33-3-.33-3.86,0-2.93,2.8-2.4,3.73-4.66.33-.8.47-1.53.47-2.26,0-3.73-1.73-4.53-1.73-6.26,0-2.2.93-2.86.93-3.86,0-1.53-.67-2.87-.67-3.73,0-2.2.53-3.26.53-4.73,0-1.8-1.27-3.06-1.27-4.66s1.13-1.93,1.2-3.13c.07-.47.13-.8.13-1.2s-.2-1.13-.8-1.13c-.33,0-1.27.8-1.73.8s-.73-.6-.73-1c.07-.8.13-1.2.13-1.4,0-1.4,2.07-2.8,2.53-3.4.6-.67,1-1,1.47-1.73Zm9.86,8.46c-1.2.2-2.2,1.93-2.2,3.13,0,0,.13,2.6.13,5,0,.67,0,1.4.07,2.26.07,1.27.47,2.33.47,3.46,0,1.53-1.33,2.33-1.33,3.66,0,1,1,1.47,1,2.4,0,1.4-.53,2.13-.53,2.66,0,1.6.8,3.53,2.46,3.53,2,0,2.53-2,2.53-3.66,0-.93-.33-1.6-.33-2.67,0-1.6.4-2.33.4-3.66s-.47-2.13-.47-3.26c0-1.4,1.2-2.2,1.2-3.46,0-1-.47-1.4-.47-2.26,0-1.8.33-2.67.33-4.33,0-1-1.27-2.87-2.86-2.87l-.4.07Z"/>
      <path class="cls-1" d="m44.9,50.7c-1.27.27-1.33,1.6-2.13,2.6-1.07,1.27-1,3.46-2.6,3.46-1.47,0-1.33-1.8-2.46-2.6-1.13-.8-1.2-.67-2.4-1.27s-1.87-1-3-1.73c-.93-.53-2-.47-2.33-1.47-.07-.13-.07-.33-.07-.47,0-.6.53-1.13.53-1.87,0-1.13-.4-1.8-.4-2.73s.6-1.93.6-2.6c0-1.27-.53-1.93-.53-2.67,0-1.6.53-2.33.53-3.13,0-1.47-.47-2.2-.47-3,0-2,2.93-2.33,2.93-3.26,0-1.73-2.86-2.47-2.86-4.93,0-.53.4-1.07.4-1.73,0-2.67-.67-1.87-.67-2.93,0-1.33,2.8-2,4.13-2,1.13,0,1.27.47,2.33.47,1.53,0,2.46-1.2,3.33-2.33,2.86-3.86,3.46-4.6,4.53-5.13.47-.27.73-.8,1.07-.8.8,0,1.2,1.07,1.73,1.27,2.2.8,1.8,1.87,2.4,2.67.67,1,1.27,1.67,2.33,2.2.33.2.33.33.33.67,0,1.27,1.27,1.07,1.27,1.73-.13,3.93.13,4.73-.47,7.66-.2.93-.67,1.47-.67,2.26,0,1.53,1.27,2.6,1.27,4.2,0,1-1.4,2.27-1.4,3,0,.67,1.27,1.13,1.27,2.13,0,2.07-.13,3.26-.13,3.93,0,1.33.8,5.93,2,5.93,1,0,1.73-.07,2.2-.07.93.07,1.07.27,1.07.6,0,.73-.6,1.8-1.07,2.13-1.07.73-1.67,1.93-2,2.8-.2.67-.93,2.07-2,2.07-.53,0-1-.27-1.67-.4-2.47-.73-2.73-3.2-5-4.33-.53-.27-1.07-.33-1.6-.33h-.33Zm-7.26-28.98c0,.93.8,2.67,1.13,3.26,0-.07,3.86,3.8,5.13,3.8.67,0,.67-2.8.67-3.4,0-.73-.2-1.93-.33-3.46-.13-1.27-1.6-1.07-2.6-2.73-.93.6-3.8,1.2-4,2.27v.27Zm4.73,15.86c-.47-.33-1.73-1.87-2.33-1.87-.87,0-.93,2.27-.93,3.06,0,.47.4,1.87.4,2.47,0,1.46-.33,2.4-.33,3,0,1.2,1.87,2.73,2.93,2.8.87,0,1.93-.2,1.93-1.07,0-1.4.2-4.13.2-6,0-.53-.07-1.07-.33-1.33-.47-.47-.93-.67-1.53-1.07Z"/>
      <path class="cls-1" d="m61.36,15.06c.6-1.07-.27-2.67,1.4-2.67.4,0,.73.2,1.13.4.87.47.6,1.47,1.13,2.33.87,1.4,1.53,2.07,2.73,3.13.73.67,1,1.53,2,1.53,1.13,0,1.6-.6,2.4-1.13.93-.6,2.13-1.4,2.13-2.66,0-.53-.27-1-.27-1.47,0-.53.4-.93.93-.93.27,0,.47.13.67.13,1.47,0,1.53-2.33,2.66-2.33s1.27,1.13,1.73,2c.67,1.2.2,2.2,1,3.26.6.8,1.6.67,2,1.6.13.2.13.53.13.87,0,1.67,1.33.6,2,1.67.13.2.2.4.2.6,0,.8-1,1.53-1.33,2.53-.4,1.13-.73,1.8-.87,3,0,1.67.6,2.6.6,3.93-.07,1.93-.87,2.8-1,4.53-.07,1.13-.53,7.4-.53,8.06,0,2.46,2,3.73,2,6.13,0,1.6-1.27,2.46-2.66,2.46-9.93,0-11.79.47-13.39,1.07-1.8.73-2.8,1.2-4.26,2.4-1.07.87-2.53,1.13-2.53,2.53s.87,2.8,2.07,2.8c1.13,0,1.87-1.6,3.06-2.46,1.6-1.13,2-3.06,4.06-3.06.67,0,1.13.07,1.4.07.33,0,.53,0,.67-.13,1.4-1.53,1.8-1.67,2.2-1.67,1.27,0,2.46,1.13,2.46,2.4,0,1.4-.73,3.46-2.67,3.46-1.4,0-2.4-1.87-2.27-1.87-1,0-1.53,1.27-2.2,2.2-2.73,3.93-4.13,5.13-7.79,5.13-2.33,0-4.06-2-4.86-3.6-.33-.93-.33-3-.33-3.86,0-2.93,2.8-2.4,3.73-4.66.33-.8.47-1.53.47-2.26,0-3.73-1.73-4.53-1.73-6.26,0-2.2.93-2.86.93-3.86,0-1.53-.67-2.87-.67-3.73,0-2.2.53-3.26.53-4.73,0-1.8-1.27-3.06-1.27-4.66s1.13-1.93,1.2-3.13c.07-.47.13-.8.13-1.2s-.2-1.13-.8-1.13c-.33,0-1.27.8-1.73.8s-.73-.6-.73-1c.07-.8.13-1.2.13-1.4,0-1.4,2.06-2.8,2.53-3.4.6-.67,1-1,1.47-1.73Zm9.86,8.46c-1.2.2-2.2,1.93-2.2,3.13,0,0,.13,2.6.13,5,0,.67,0,1.4.07,2.26.07,1.27.47,2.33.47,3.46,0,1.53-1.33,2.33-1.33,3.66,0,1,1,1.47,1,2.4,0,1.4-.53,2.13-.53,2.66,0,1.6.8,3.53,2.46,3.53,2,0,2.53-2,2.53-3.66,0-.93-.33-1.6-.33-2.67,0-1.6.4-2.33.4-3.66s-.47-2.13-.47-3.26c0-1.4,1.2-2.2,1.2-3.46,0-1-.47-1.4-.47-2.26,0-1.8.33-2.67.33-4.33,0-1-1.27-2.87-2.86-2.87l-.4.07Z"/>
      <path class="cls-1" d="m88.87,12.52c.67-.6,1.13-.73,1.47-1.6.07-5.53.47-4.8,1.07-5.33,1.13-.93,2.2-.73,3.26-1.67,1.13-1,1.2-1.27,2.13-2.4.53-.6.8-1.53,1.47-1.53.87,0,1.53,1,1.53,1.73,0,.8-.8.87-1.07,1.87-.27,1.27-.13,2.07-.53,3.33-.2.73-.8,1.13-.8,1.93,0,1.27.47.47.47,1.07,0,.8-.27,1.53-.27,1.87,0,.93,1.07,1.33,2,1.33.67,0,1.93-.73,2.53-.73.87,0,1.2,2.86,1.2,4.06,0,1.73,0,3.13-.8,3.8-.27.27-.87.27-1.33.27-1.87.2-2.8.13-3.33.67-.93.67-1.07,2.4-1.07,3.8,0,4.26.4,2.46.4,3.66,0,2,.33,3.46.33,4.66,0,1.93-.47,3-.47,3.67,0,2.73.27,2.86.27,3.53,0,1.87-.33,1.8-.33,2.4,0,.4.27,1.47.53,1.87.53.6,1.4.6,2.07.93.87.47.33,1.33,1.27,1.33s1.27-1,1.93-1c.93,0,1.2.93,1.2,1.73,0,2.07-.93,2.26-2.33,3.53-.87.8-1.47,1.13-2.4,1.93-1.07,1-1.13,3.06-2.53,3.06-.6,0-.87-.13-1.27-.4-.8-.6-.27-1.67-1-2.4-.73-.73-1.67-.4-2.6-1-.87-.6-1.4-1-2.06-1.87-.93-1.4-1.2-3.8-1.2-5.46,0-.8.13-1.87.2-3.06.13-1.2.67-2.06.73-3.06,0-1.47-.73-3-.73-4.6,0-2.13.73-2.33.73-3.53,0-2-.33-4.46-.33-5.73s.53-2.93.53-3.53c0-1.33-1.13-1.73-2.46-1.73-1.13,0-1.27-.33-1.27-.8,0-3.26.53-4.46.8-5,.4-.87,1.33-.8,2-1.53l.07-.07Z"/>
      <path class="cls-1" d="m128.38,20.99c-.8.93-4.2,2.2-4.2,3.46,0,1.67,2.33.53,3.33,1.67,1.53,1.67,5.46,5,5.46,7.39,0,.6-.07,1.2-.13,1.93-.27,5.13-.27,6.79-.27,7.53,0,1.47.07,3.6.27,4.06.2.33.2.53.2.73,0,.4-.13.73-.13,1.47,0,1.33-2.8,1.13-3.66,1.87-.53.53-2.53,1.53-3.93,1.53-.8,0-2.53,1.27-3.06,1.67-.6.33-3.66,2.4-4.06,2.4-.67,0-1.53-.8-2.2-1-1.87-.4-2.67-4.13-3.86-4.8-1.13-.73-1.67-.93-3.4-2.07-.67-.47-1.27-.53-1.73-.53s-.87.13-1.2.13c-.47,0-.67-.27-.67-1.4,0-1.53,5.66-4.33,5.66-5.26-.67-2-4.46-1.4-4.46-3.46,0-1.4.8-1.2.8-2.4,0-1.73-.6-2.73-.6-4.33,0-2.46.6-4,.6-5.06,0-1.67-.6-3.13-.6-4.13,0-3.13.6-3.53.8-3.66.2-.13,1.4-1.13,1.73-1.13,1.07,0,.73.53,2.2.53.53,0,1.93-.67,2.4-.87,2.53-1.13,2.33-1.87,4-3.66,1.2-1.2,2.33-2.8,3.73-2.8,1.07,0,1.47.8,2.2,1.4,2,1.93.73,4.06,3.93,4.06,1.27,0,2.6-.33,3.26-.87.2-.13.4-.2.53-.2.6,0,1,.73,1,1.53,0,2.67-2.33,2.26-3.93,4.26Zm-13.99,21.38c0,1,1.73.2,2.53.93,1.87,1.67,1.13,1.67,2.93,2.8.93.47,1.13,2.27,2.06,2.27,1.2,0,2.13-.87,2.27-2.07,0-.93-.67-1.27-.87-2.13-.07-.27-.07-.6-.07-.87.27-1.93.33-2.73.33-3.13,0-1.33-.2-3.53-1.6-3.53-.67,0-1.13.6-1.8.93-1.6.73-5.66,3.26-5.8,4.8Zm5.6-14.26c.33-1,.8-1.8.8-2.66,0-1.47-.67-3.93-2.73-3.93-1.33,0-1.67.73-1.93,1.67.13.87.2,1.2.2,1.4,0,.27-.4,1.6-.4,2.2,0,1.4-.33,4.73-.33,4.33,0,.67.4,1.53,1.07,1.53.6,0,.73-.47,1.13-.87,1.27-1.13,1.67-2.13,2.2-3.66Z"/>
      <path class="cls-1" d="m139.97,18.59c1,0,1.4-.47,2.2-1,1-.6,1.2-1.47,2.27-1.93.53-.27,1.6-.07,1.87-.33,1-.53.53-1.73,1.33-2.46.93-.73,2-.07,2.93-.87.73-.53.67-1.53,1.87-1.53,1.4,0,.67,1.27,1.13,2.07.93,1.53,2.46,2.67,3.46,4.13.53.8.47,2.13,1.6,2.13.4,0,.8-.27,1.13-.27.93,0,1.13,1.47,1.13,2.13,0,.8-.47,1.4-.73,2.26-.33,1.27-1.13,2-1.13,3.13,0,1.27,1.13,1.53,1.13,2.46,0,1.2-1,1.8-1,2.93,0,.73.13,1.53.13,2.13,0,2.13-.4,2.33-.4,3.2.13,1.6.6,2.2.67,3.26,0,0-.73,3.33-.73,4.86,0,.93.13,1.67.73,2.46.33.4.87.4.87.8,0,.6-.53.8-.87,1.13-1.27,1.33-2.73.87-4.46,1.47-1.6.6-2.86.4-4.2,1.53-.73.73-.4,2.13-1.47,2.13-.47,0-.73-.33-1.13-.33-1.13,0-1.93,1.33-2.6,1.33-.8,0-1.87-.53-2.33-1-.8-.8-.93-1.53-1.87-2.27-.67-.53-1.4-.4-2-1.13-.47-.53-.33-1.07-.8-1.67-.6-.73-1.13-1.07-2.13-1.4-.53-.27-.93-.6-.93-1.2,0-.53.47-.4.73-1.2.67-1.6.53-2.67.73-4.4.2-1.13.4-1.87.4-2.93,0-2.67-.93-3.06-.93-4.86,0-2,.73-3.66.73-5.93,0-2.8-.47-3.93-.73-6-.07-.67-.33-1.2-.33-1.8,0-.87.67-1.87,1.6-1.87.8,0,1.27.8,2,.8h.13Zm5,6.06c0,.2.2,1.13.2,1.27,0,.87-.47,1.13-.53,1.73,0,.87.2,1.2.47,2,.33,1,.4,1.67.4,2.67,0,1.2-.13,2.13-.33,3.26-.27,1.2-.53,1.67-.53,2.53.07.73.33,1.13.47,1.8,0,1.07.33,1.33.33,2.8,0,.53.87.33,1.2.67.53.47.33,1.13.8,1.53.47.4.93.27,1.47.47.47.2.73.47,1.2.47.53,0,.67-.33.67-.73,0-.67-.33-1.6-.33-2.4,0-1.07.2-1.67.2-2.4,0-1.67-.33-2.86-.33-3.6,0-2.33.67-2.73.67-3.93,0-1.4-.2-2-.2-3.13.07-.87.27-1.4.33-2.33.13-1.07.6-1.93.6-2.87,0-1.87-1.73-3.33-3.46-3.33-1.27,0-2.07.2-2.07,1.47,0,.33,0,.73-.33,1-.33.47-.87.33-.87,1.07Z"/>
      <path class="cls-1" d="m203.6,50.03c0,1.27-.47,1.93-.93,2.87-.73,1.53-1.53,2.13-2.53,3.4-1.2,1.67-1.87,2.67-3.06,4.26-2.07,2.6-3.53,4.46-7.13,4.73-.33.07-.67.07-1,.07-1.87,0-3.13-.73-5.2-1.2-2.33-.47-3.8-.33-5.93-1.4-1.53-.73-3.46-1.07-3.46-2.53,0-1.87,1.33-2.67,2.46-3.8,1-.87,2.8-.53,2.8-1.87s-1.07-1.6-1.8-2.53c-1.27-1.47-3.93-2.6-3.93-4.53,0-1.27,1.07-1.67,1.53-2.73.93-2.2,1-3.73,1-6,0-2.93-.6-4.13-.6-6.33,0-6.66,0-7.73-.27-9.59-.13-1.07-.73-1.8-.73-2.67,0-1.2,1.87-3.06,3.06-3.06.8,0,1.67.47,2.33.47,1.67,0,3.33-.2,4.93-1,1.33-.6,1.8-1.33,2.93-2.2.93-.6,1.6-.8,2.4-1.6.6-.53.53-1.6,1.33-1.67.67,0,.87.53,1.4.87,1.27.93,1.33,2.2,2.66,2.8.6.27,1.07.07,1.67.4,1.2.67.53,2.93,2.33,2.93.67,0,1.33-.33,1.87-.33.6,0,.87.47.87,1,0,.73-.67,1.27-.93,2.07-.4,1.33-.67,2.06-1,3.4-.27,1.4-.13,2.2-.53,3.53-.33,1.27-1.27,1.8-1.33,3.06,0,1.07.53,1.6.73,2.6.4,1.6.47,2.46.47,3.86s-.2,3.86-.2,4.46c0,.73.07,1.07.2,1.33.73,2.4,3.6,4.26,3.6,6.93Zm-16.19-28.78c-1.47,0-2.4,1.27-2.4,2.53,0,1.53.87,2.67.87,4.13,0,.27,0,.47-.13.73-.27.73-1.4.53-1.47,1.27,0,.67.8.8,1,1.4.13.27.13.53.13.8,0,.53-.2,1.07-.27,1.73-.13,1.33-.33,2.13-.6,3.4-.27,1.27-.73,1.93-.8,3.2,0,2.07.6,3.86,2,5.4.67.8.93,1.53,2,1.53,1.6,0,2.6-2.93,2.6-4,0-1.67-.33-5.13-.33-6.13,0-1.87.47-2.33.47-3.2,0-1.2-.27-2.46-.4-3.06-.2-1.33-.53-2.07-.53-3.46.07-1.13.73-2.46.73-3.73,0-1.47-1.2-2.53-2.73-2.53h-.13Zm-1.73,32.71c0,1.67,1.73,1.53,2.86,2,1.2.53,2.07,1.2,3.2,1.2,1.73,0,3.86-.8,3.86-2.67,0-1.27-1.13-2-2.33-2.73-.73-.73-1.93,0-2.46-.87-.2-.33-.13-.67-.27-1.13-1.33.8-2.53.8-3.6,2-.6.8-1.27,1.33-1.27,2.2Z"/>
      <path class="cls-1" d="m221.05,50.7c-1.27.27-1.33,1.6-2.13,2.6-1.07,1.27-1,3.46-2.6,3.46-1.47,0-1.33-1.8-2.46-2.6-1.13-.8-1.2-.67-2.4-1.27s-1.87-1-3-1.73c-.93-.53-2-.47-2.33-1.47-.07-.13-.07-.33-.07-.47,0-.6.53-1.13.53-1.87,0-1.13-.4-1.8-.4-2.73s.6-1.93.6-2.6c0-1.27-.53-1.93-.53-2.67,0-1.6.53-2.33.53-3.13,0-1.47-.47-2.2-.47-3,0-2,2.93-2.33,2.93-3.26,0-1.73-2.86-2.47-2.86-4.93,0-.53.4-1.07.4-1.73,0-2.67-.67-1.87-.67-2.93,0-1.33,2.8-2,4.13-2,1.13,0,1.27.47,2.33.47,1.53,0,2.46-1.2,3.33-2.33,2.86-3.86,3.46-4.6,4.53-5.13.47-.27.73-.8,1.07-.8.8,0,1.2,1.07,1.73,1.27,2.2.8,1.8,1.87,2.4,2.67.67,1,1.27,1.67,2.33,2.2.33.2.33.33.33.67,0,1.27,1.27,1.07,1.27,1.73-.13,3.93.13,4.73-.47,7.66-.2.93-.67,1.47-.67,2.26,0,1.53,1.27,2.6,1.27,4.2,0,1-1.4,2.27-1.4,3,0,.67,1.27,1.13,1.27,2.13,0,2.07-.13,3.26-.13,3.93,0,1.33.8,5.93,2,5.93,1,0,1.73-.07,2.2-.07.93.07,1.07.27,1.07.6,0,.73-.6,1.8-1.07,2.13-1.07.73-1.67,1.93-2,2.8-.2.67-.93,2.07-2,2.07-.53,0-1-.27-1.67-.4-2.47-.73-2.73-3.2-5-4.33-.53-.27-1.07-.33-1.6-.33h-.33Zm-7.26-28.98c0,.93.8,2.67,1.13,3.26,0-.07,3.86,3.8,5.13,3.8.67,0,.67-2.8.67-3.4,0-.73-.2-1.93-.33-3.46-.13-1.27-1.6-1.07-2.6-2.73-.93.6-3.8,1.2-4,2.27v.27Zm4.73,15.86c-.47-.33-1.73-1.87-2.33-1.87-.87,0-.93,2.27-.93,3.06,0,.47.4,1.87.4,2.47,0,1.46-.33,2.4-.33,3,0,1.2,1.87,2.73,2.93,2.8.87,0,1.93-.2,1.93-1.07,0-1.4.2-4.13.2-6,0-.53-.07-1.07-.33-1.33-.47-.47-.93-.67-1.53-1.07Z"/>
      <path class="cls-1" d="m242.9,56.23c-1.13-.13-1.33-1.33-2.4-1.8-.73-.33-1.53.07-2.07-.6-1.07-1.47-1.07-1.67-1.27-1.67-1.27.27-1.8.33-2.13.33-.67,0-.93-.73-.93-1.27,0-2.06,1.6-3.73,2.33-5.53.27-.8.33-1.67.33-2.46,0-2.86-.2-3.4-.2-4.33,0-2.6.33-3.93.33-4.4,0-.53-.2-1.93-.2-2,0-.93.67-1.6.67-2.4,0-1.13-.07-1.4-.47-2.33-.47-1.27-.6-1.8-.6-2.93,0-1.93.93-2.53.93-3.6,0-.93-.93-1.33-.93-2.13,0-.73.13-1.07.13-1.53,0-.6-.33-1.13-.33-1.8,0-.8.87-1.67.87-2.67,0-1.07-.4-1.13-.4-2.4,0-1.07-.33-2.2-.6-2.53-.8-.93-1.6-1.87-1.6-2.53,0-.8.4-2.73,1.8-2.73.73,0,1.07.33,1.6.93.6.67.13,1.53.67,2.2.6.73,1.47,1.33,2.33,1.33.4,0,.73-.13,1.07-.4.53-.47.67-1.27,1.13-1.73.53-.53,1.8-1.27,2.2-2.06.6-1.2,2.33-2,3.06-2.33.6-.27,1-.27,1.4-.27.87,0,1.33.33,1.33,1s-1.07,1.13-1.47,1.93c-1.53,3.2-2.67,3.4-3,4.53-.07.27-.07.47-.07.67.13,2.2.27,1.93.27,2.86,0,1.47-.2,3.4-.2,4,0,1.53.2,2.93.2,3.33,0,1.73-.47,2.53-.47,3.2,0,1.13.27,2.86.27,3.66,0,3.33-.73,3.66-.73,4.93s.8,2.53.8,3.86c0,1.46-.53,5.2-.53,5.8,0,1.27-.73,1.93-.73,3.06,0,1,.93,3.53,2.2,3.53.27,0,1.2-.33,1.33-.33,1.13,0,1.27.4,1.27.87,0,1.33-.27,2.07-.67,2.93-.87,2-1.6,2.07-3.66,4.13-.93.73-1.53,1.67-2.66,1.67h-.2Z"/>
      <path class="cls-1" d="m259.69,56.23c-1.13-.13-1.33-1.33-2.4-1.8-.73-.33-1.53.07-2.07-.6-1.07-1.47-1.07-1.67-1.27-1.67-1.27.27-1.8.33-2.13.33-.67,0-.93-.73-.93-1.27,0-2.06,1.6-3.73,2.33-5.53.27-.8.33-1.67.33-2.46,0-2.86-.2-3.4-.2-4.33,0-2.6.33-3.93.33-4.4,0-.53-.2-1.93-.2-2,0-.93.67-1.6.67-2.4,0-1.13-.07-1.4-.47-2.33-.47-1.27-.6-1.8-.6-2.93,0-1.93.93-2.53.93-3.6,0-.93-.93-1.33-.93-2.13,0-.73.13-1.07.13-1.53,0-.6-.33-1.13-.33-1.8,0-.8.87-1.67.87-2.67,0-1.07-.4-1.13-.4-2.4,0-1.07-.33-2.2-.6-2.53-.8-.93-1.6-1.87-1.6-2.53,0-.8.4-2.73,1.8-2.73.73,0,1.07.33,1.6.93.6.67.13,1.53.67,2.2.6.73,1.47,1.33,2.33,1.33.4,0,.73-.13,1.07-.4.53-.47.67-1.27,1.13-1.73.53-.53,1.8-1.27,2.2-2.06.6-1.2,2.33-2,3.06-2.33.6-.27,1-.27,1.4-.27.87,0,1.33.33,1.33,1s-1.07,1.13-1.47,1.93c-1.53,3.2-2.67,3.4-3,4.53-.07.27-.07.47-.07.67.13,2.2.27,1.93.27,2.86,0,1.47-.2,3.4-.2,4,0,1.53.2,2.93.2,3.33,0,1.73-.47,2.53-.47,3.2,0,1.13.27,2.86.27,3.66,0,3.33-.73,3.66-.73,4.93s.8,2.53.8,3.86c0,1.46-.53,5.2-.53,5.8,0,1.27-.73,1.93-.73,3.06,0,1,.93,3.53,2.2,3.53.27,0,1.2-.33,1.33-.33,1.13,0,1.27.4,1.27.87,0,1.33-.27,2.07-.67,2.93-.87,2-1.6,2.07-3.66,4.13-.93.73-1.53,1.67-2.66,1.67h-.2Z"/>
      <path class="cls-1" d="m288.27,21.25c0,.8-.13,1.33-.27,1.73-.47,1.4-1.8,1.33-2.6,1.93-1.6,1.2-1.27,2.93-2.33,4.66-1.2,1.8-2.4,2.46-3.53,4.33-.87,1.4-1.8,2.2-1.8,3.86,0,1.47.67,2.07.67,3.2,0,1.33-.13,2.33-.13,3,0,1.6,1.47,2.46,2.73,3.06.67,0,2.2.4,2.73.8.4.2,1.13.47,1.13.8,0,.6-1.73,2.26-2.27,2.93-.93,1.2-1.4,2-2.53,3-.87.67-1.27,1.67-2.27,1.67-1.27-.13-1.07-1.47-2-2-.6-.4-1.2-.27-1.87-.67-1.13-.6-1.47-1.4-2.46-2.2-1.13-.8-2.27-.67-3-1.8-.33-.33-.67-1.07-.67-1.53,0-1.2,1.13-1.33,1.47-2.27.13-.33.13-.6.13-.87,0-.73-.27-1.33-.27-2.2,0-2.46.4-3.86.4-5,0-2.07-.4-3.06-.4-4.26,0-3.46.73-4.06.73-6.53,0-1.07-1.07-1.8-1.07-3,0-.87.47-1.47.47-2.27,0-1.13-.4-1.47-.4-2,0-1.47,1.53-1.93,2.8-1.93.8,0,1.33.07,1.73.07,1.67,0,2.86-.67,4.13-1.53,1.73-1.27,2.93-3.26,4.86-4.33.8-.47,1.6-1.33,2.33-1.33,1.4,0,3,3.4,3.8,4.26.87,1,1.4,2.13,1.4,3.26,0,.67-.2,1.27-.53,1.93-.4.6-1.13.47-1.13,1.2Zm-9.53-.87c-1,0-1.33,1-1.33,1.8,0,1.33,1.07,1.6,1.07,2.46,0,1-1,1.53-1,2.33s.87.87.87,1.33-.4.67-.4,1.07c0,.6.73,1,1.13,1,.73,0,1.93-2.07,1.93-3.06,0-.6-.27-1.13-.27-1.67,0-1,1.2-1.27,1.27-2.13,0-1.2-2.13-3.13-3.26-3.13Z"/>
      <path class="cls-1" d="m301.53,31.71c0,.07.13.13.13,3,0,.73-.33,3.4-.33,4,0,3.93.6,5.26.8,5.6.6.87.2.8,1.47,2.06,1.2,1.2,1.87-.2,1.87,2.2,0,2.06-3.26,4.06-4.53,5.6-.8.93-1,2.26-2.27,2.26-2.2,0-2.66-2.86-3.53-4-.87-1.07-1.93-2.13-3.46-2.13-2.13,0-2.46-.2-2.46-.53,0-1.4.07-2.07.87-2.73.8-.67,1.8-.2,1.8-1.33,0-.53.73-1.6.73-2.07,0-1,.13-.73.67-1.33.13-.2.2-.47.2-.87,0-.6-.13-1.4-.13-1.73,0-.87-.13-1.87-.13-2.47s.07-3,.07-4.46c0-1.2.13-1.87.13-2.6,0-.6-.07-1.2-.53-2.13-.27-.47-.27-1.47-.27-1.87,0-2.2.27-2.33.27-3.26,0-.13-.4-1.8-.47-1.93-.27-.67-.87-.73-1.47-1.07-.27-.13-.6-.2-.87-.2-1.13,0-2.13,1.2-3.06,1.2-.73,0-.8-.87-.8-1.67,0-1.87,2.13-1.73,3.53-2.8.73-.53,1.4-.2,2.06-.8,1.53-1.33,1.2-.73,2.53-1.6,1.33-.87,2.13-3.33,3.53-3.33.47,0,1.2,1.6,1.53,1.73.6.6.93,1,.93,2.13,0,1.4.67.73.67,1.87,0,.67.67,1,1.07,1,.27,0,.8-.33.8-1.33,0-1.07.27-.2.53-2.07.2-1.47,2.67-2.2,4-2.2,1.07,0,1.07.87,1.93.87,2,0,1.27-.27,2.73-.27.8,0,.8,1.73.8,2.33-.6,1.27-.67,2.53-1,3.86-.33,1.27-1,1.8-1,3.06,0,.13-1.27,2-2.2,2-1.07,0-1.27,0-1.4-.33-.4-1-1.47-2.33-2.2-2.33-1.2,0-1.4.07-1.87.47-.93.73-1.07,1.27-1.07,1.8,0,1.4-.33,1.53-.33,2.6,0,.73.13,2.4.13,2.87l-.4,2.93Z"/>
      <path class="cls-1" d="m317.99,15.06c.6-1.07-.27-2.67,1.4-2.67.4,0,.73.2,1.13.4.87.47.6,1.47,1.13,2.33.87,1.4,1.53,2.07,2.73,3.13.73.67,1,1.53,2,1.53,1.13,0,1.6-.6,2.4-1.13.93-.6,2.13-1.4,2.13-2.66,0-.53-.27-1-.27-1.47,0-.53.4-.93.93-.93.27,0,.47.13.67.13,1.47,0,1.53-2.33,2.66-2.33s1.27,1.13,1.73,2c.67,1.2.2,2.2,1,3.26.6.8,1.6.67,2,1.6.13.2.13.53.13.87,0,1.67,1.33.6,2,1.67.13.2.2.4.2.6,0,.8-1,1.53-1.33,2.53-.4,1.13-.73,1.8-.87,3,0,1.67.6,2.6.6,3.93-.07,1.93-.87,2.8-1,4.53-.07,1.13-.53,7.4-.53,8.06,0,2.46,2,3.73,2,6.13,0,1.6-1.27,2.46-2.66,2.46-9.93,0-11.79.47-13.39,1.07-1.8.73-2.8,1.2-4.26,2.4-1.07.87-2.53,1.13-2.53,2.53s.87,2.8,2.07,2.8c1.13,0,1.87-1.6,3.06-2.46,1.6-1.13,2-3.06,4.06-3.06.67,0,1.13.07,1.4.07.33,0,.53,0,.67-.13,1.4-1.53,1.8-1.67,2.2-1.67,1.27,0,2.46,1.13,2.46,2.4,0,1.4-.73,3.46-2.67,3.46-1.4,0-2.4-1.87-2.27-1.87-1,0-1.53,1.27-2.2,2.2-2.73,3.93-4.13,5.13-7.79,5.13-2.33,0-4.06-2-4.86-3.6-.33-.93-.33-3-.33-3.86,0-2.93,2.8-2.4,3.73-4.66.33-.8.47-1.53.47-2.26,0-3.73-1.73-4.53-1.73-6.26,0-2.2.93-2.86.93-3.86,0-1.53-.67-2.87-.67-3.73,0-2.2.53-3.26.53-4.73,0-1.8-1.27-3.06-1.27-4.66s1.13-1.93,1.2-3.13c.07-.47.13-.8.13-1.2s-.2-1.13-.8-1.13c-.33,0-1.27.8-1.73.8s-.73-.6-.73-1c.07-.8.13-1.2.13-1.4,0-1.4,2.06-2.8,2.53-3.4.6-.67,1-1,1.47-1.73Zm9.86,8.46c-1.2.2-2.2,1.93-2.2,3.13,0,0,.13,2.6.13,5,0,.67,0,1.4.07,2.26.07,1.27.47,2.33.47,3.46,0,1.53-1.33,2.33-1.33,3.66,0,1,1,1.47,1,2.4,0,1.4-.53,2.13-.53,2.66,0,1.6.8,3.53,2.46,3.53,2,0,2.53-2,2.53-3.66,0-.93-.33-1.6-.33-2.67,0-1.6.4-2.33.4-3.66s-.47-2.13-.47-3.26c0-1.4,1.2-2.2,1.2-3.46,0-1-.47-1.4-.47-2.26,0-1.8.33-2.67.33-4.33,0-1-1.27-2.87-2.86-2.87l-.4.07Z"/>
    </g>
  </g>
</svg>